<svg xmlns="http://www.w3.org/2000/svg" viewBox="0 0 106.41 95.27"><defs><style>.cls-1{fill:#ed1c24;}</style></defs><g id="Capa_2" data-name="Capa 2"><g id="Layer_1" data-name="Layer 1"><path class="cls-1" d="M31.61,10.92c-.05-.25-.26-1.05-.64-1.14.14.24-.21.17-.34.23A1.3,1.3,0,0,0,31.61,10.92Z"/><path class="cls-1" d="M25,16.32c-.16.29-.39-.14-.64,0,.05.57.47.7.89.44C25,16.55,25.24,16.35,25,16.32Z"/><path class="cls-1" d="M43,15.18c0-.17.33,0,.51-.19,0-.5-.88-.64-.72,0C43.1,14.84,42.69,15.2,43,15.18Z"/><path class="cls-1" d="M49.5,14.9c.16-.36.08-.48,0-1-.31-.06-.5-.3-.92-.2a1.74,1.74,0,0,0,.06,1C49,14.75,49.12,15,49.5,14.9Z"/><path class="cls-1" d="M17.89,21.57c.09.33.26.55.65.42,0-.28-.23-.25-.27-.5Z"/><path class="cls-1" d="M19.51,22.82l0-.15.15,0c-.19-.67-.52-.58-1-.66A2.41,2.41,0,0,0,19.51,22.82Z"/><path class="cls-1" d="M20.49,24c.34-.15.42.1.6.19-.06-.32.4-.3.43-.57-.12-.16-.44-.68-.68-1l-.61.13-.08.12L20,23C20.25,23.26,20.31,23.74,20.49,24Z"/><path class="cls-1" d="M44.12,19.15a1.08,1.08,0,0,1,.76-.56c-.15-.41-.45-.58-.67-.89-.46.48-.79.12-1.23.58C43.34,19.17,43.74,18.67,44.12,19.15Z"/><path class="cls-1" d="M29.78,26.91c-.19-.82-1.16-.73-1.26-1.4a2.23,2.23,0,0,0-.85.1c-.16.51.31.6.44.94C28.73,26.52,29.24,27.15,29.78,26.91Z"/><path class="cls-1" d="M13.47,31.43l-.23.05c0,.14-.05.19,0,.32C13.48,31.79,13.56,31.67,13.47,31.43Z"/><path class="cls-1" d="M28,32.31c-.1,0-.1-.12-.19-.12C27.75,32.37,28,32.53,28,32.31Z"/><path class="cls-1" d="M30.19,33,30,33l0,.16.23,0A1.24,1.24,0,0,0,30.19,33Z"/><path class="cls-1" d="M31.83,33.16c-.08.13,0,.31.14.29C31.93,33.34,31.94,33.16,31.83,33.16Z"/><path class="cls-1" d="M18.3,39.88c.55,0,1.26-.57,1.54.14a17.1,17.1,0,0,1,2.62-.79V39.1l.13,0c-.19-.36-.71-.2-.85-.62-.82.36-1.48-.39-1.91,0-.18.08-.2-.1-.4,0-.12.69-1.05.48-1.54,1l.06.11.06.11A.27.27,0,0,0,18.3,39.88Z"/><path class="cls-1" d="M22.89,39.37c.55.53.87,0,1.45-.31-.32-.67-1.07.09-1.41.14,0-.05-.08-.07-.17,0l.07.11-.13,0C22.73,39.34,22.77,39.43,22.89,39.37Z"/><path class="cls-1" d="M17.1,40.21c.14-.08.52,0,.51-.19-.06,0-.1,0-.1-.13l.07,0-.06-.11-.06-.1c-.27-.11-.29.09-.61.13C16.86,40,17,40.06,17.1,40.21Z"/><path class="cls-1" d="M25.46,38.74a.4.4,0,0,0-.46.1c0,.36.3.23.47.3C25.36,38.94,25.53,38.92,25.46,38.74Z"/><path class="cls-1" d="M20.1,44.19c-.11.07-.42,0-.37.16C19.83,44.28,20.14,44.35,20.1,44.19Z"/><path class="cls-1" d="M3.32,64.41c.22,0,.37-.34.09-.33C3.44,64.23,3.22,64.22,3.32,64.41Z"/><path class="cls-1" d="M31.51,61.09c.12.08.31,0,.29-.14C31.69,61,31.51,61,31.51,61.09Z"/><path class="cls-1" d="M82.14,54.73c.26,0,.32.32.61.27,0-.38.34-.52.28-.93C82.51,53.72,82.18,54.23,82.14,54.73Z"/><path class="cls-1" d="M19,69.51c.19,0,.23.26.5.13a2.05,2.05,0,0,0,.16-.75C19.24,69,19.26,69.34,19,69.51Z"/><path class="cls-1" d="M17,71.37c.13.23,0,.26.19.51.62.06.5-.5.86-.42,0-.4.14-.36.19-.6A1.34,1.34,0,0,0,17,71.37Z"/><path class="cls-1" d="M39.91,68.7c-1-.43-1.06.8-1.53,1-.23.69,0,1,0,1.76.2-.07.23.11.3.25A1.71,1.71,0,0,0,40,71.31c-.08-.31.07-.48-.08-.78.33-.43-.17-1,.18-1.39C40,69,39.9,68.94,39.91,68.7Z"/><path class="cls-1" d="M54.42,67.34c-.36-.2-.12.29,0,0Z"/><path class="cls-1" d="M50.44,74.8c.22,0,.12-.18.18-.27C50.46,74.55,50.39,74.64,50.44,74.8Z"/><path class="cls-1" d="M80.41,71.58c.17-.06.13.21.27.18,0-.14.25-.1.18-.27S80.4,71.41,80.41,71.58Z"/><path class="cls-1" d="M40.4,92.63c.31.18.17-.33,0,0Z"/><path class="cls-1" d="M1.18,9.3c-.11.37.42.53.51.93a1.08,1.08,0,0,0,.53-.12c.41.26.81.51,1.21.78,0-.14.1,0,.22-.05l-.06-.1.11-.07c-.38-.46-.89-.72-1.29-1.16a7.88,7.88,0,0,0-1.25-.28C1.08,8.91,1,9.25,1.18,9.3Z"/><path class="cls-1" d="M14.09,7.5c0,.3.17.34.2.59a2.64,2.64,0,0,1,1.26.69l0-.15.15,0c-.15-.85-.8-1.46-1.45-1.2C14.43,7.48,14.12,7.35,14.09,7.5Z"/><path class="cls-1" d="M93,44.53c0-.1.1-.2,0-.23-.65.32-1-.64-1.84-.4-.2-.31-.62-.27-.71-.73a8.18,8.18,0,0,0-3.8.1c0-.09.08-.14,0-.15-.28.18-.62.06-.94,0s-.27-.22-.37-.24-.49.08-.72,0-.18-.23-.29-.25c-.47-.11-1.06,0-1.55-.15-.84-.88-2-.58-3-1.27,0,.13-.1,0-.23,0-.41-.37-1.16-.23-1.44-.8A3.94,3.94,0,0,1,76,39.33c-.38.19-.43-.14-.79,0-.69-.59-1.84-.47-2.59-1-.1,0-.22.06-.25,0a.58.58,0,0,0-.37.16c-1.1-.38-2-1.09-3.16-1.39-.54-.65-1.94-1.5-1.19-2.61,0-.15-.07-.31-.1-.46.23.1.45-.24.54-.43,0,.09.07.17.19.12a2.84,2.84,0,0,1,1.53-1.05,5.46,5.46,0,0,1,2.11-.93,2.29,2.29,0,0,0,1.92-.32,5,5,0,0,0,2.92.64,1.26,1.26,0,0,1,1.3-.27c0-.14,0-.2.19-.2a.45.45,0,0,1,0-.57c.85-.15,1.14-.66,1.79-.94,0-.4.38-.63.41-1-.29-.3-.33-.72-.68-1A3.67,3.67,0,0,0,77,28c0-.13-.06-.12-.19-.12a1.88,1.88,0,0,0-1.44.71,1.48,1.48,0,0,1-.41.32c-.1.15,0,.22-.08.34,0,0-.32.11-.29.14s0-.22-.13-.21a.29.29,0,0,1-.24.37c-.18,0-.42,0-.5-.13a4.14,4.14,0,0,1-1.32.52c-1.25.17-2.33-.54-3.44-.78,0,.22-.24.28-.39.4-.62.09-.92-.33-1.5-.31-.23-.31-.66-.64-.92-.6-.09-.34-.52-.14-.59-.51a.66.66,0,0,1,.54-.83A2.66,2.66,0,0,1,67,26a3.37,3.37,0,0,1-.28-1.29c.28-.14.37-.41.29-.86.41-.21.4-.71,1-.77.28-1.09,1.75-1.33,2.4-2.19.12-.16-.06-.46.3-.46,0-.15-.12-.15-.14-.29l.3-.06a3.1,3.1,0,0,1,1-2.45c-.11-1,1.08-1.5.57-2.58.33-.74,0-1.28.38-1.92.26-.42.83-.59,1-1.08a3.6,3.6,0,0,0-.06-1,1.67,1.67,0,0,0-1.66-.28c-.39.53-1.18.47-1.57,1.21l.06.3c-.7.66-.48,1.92-1.66,2.27.09.23,0,.33-.15.43-.93.73-1.15,1.92-2.14,2.61a1.7,1.7,0,0,1-.35.63c-.26.09-.36.29-.73.31-.19.61-1,.41-1.41.86-1.58.09-2.63,2-4.15,2.16-.06.25-.28.39-.44.57-1,.05-1.71,1-2.62,1.12a3.82,3.82,0,0,0-1.08-.56c-.07-.42-.22-.49-.54-.68,0-.46-.34-.69-.23-1.07a1.33,1.33,0,0,1-.55-1.08,2.22,2.22,0,0,1-1.71-.91c-.08-.51,0-1-.37-1.35a31.32,31.32,0,0,1,.17-3.3c-.47-.84.08-1.91-.15-2.59a6.12,6.12,0,0,0,.15-3.38c.41-.28.06-.7.13-.9s.31-.18.3-.47-.11-.18-.1-.45c.28-.17.32-.5.85-.5,0-.4.26-.57.37-.88a10.91,10.91,0,0,0-.1-1.57c-.09-.32-.41-.48-.41-.79s.41-.61.51-1a6.08,6.08,0,0,0,0-1.59L53.64,0c-.14.16-.21.38-.35.55-.37.43,0,1.29-.3,2-.15.33-.44.37-.56.75-1.17.19-.63,1.65-.31,2.62-.33.84-.15,2.28-.65,2.92,0,.25.2.3.21.6a8,8,0,0,0-.18,1.39,6.11,6.11,0,0,1-.63,1.56c.14.31-.07.39,0,.65-.29.07-.23.37-.45.49-.28,1.5-.14,3-1.2,4.08-.09-.16-.43.06-.62.05a.38.38,0,0,0,.14.29c-.34.09-.18.5-.42.65-.86.1-1.2,1.34-2.31,1.13-.15-.31-.54-.24-.86-.3a5.15,5.15,0,0,0-.51.59c-.18-.47-.64-.47-1-.19.1.65.74.47.87,1.09-.42,0,.1.63-.25.69.16-.25-.13,0-.21-.19a2.15,2.15,0,0,0-.51-.53c-.41.1-.52-.1-.85.1-.06.16.17.56-.08.74-.62.11-.89-.41-1-.74-.18-.1-.49,0-.54-.28a2.31,2.31,0,0,1-1.86-.48.47.47,0,0,0-.29.14c-1-1.36-2.61-2.39-3.48-4-.07-.13,0-.32-.1-.46-.23-.47-.73-.59-1-.9a5.93,5.93,0,0,1-.42-.87c-.17-.28-.48-.5-.66-.81s-.36-.85-.76-.95c0,.39.2.79,0,1.19.2.59.67.79,1.1,1,.21,1.33,1.34,1.76,1.7,2.75-.2.29-.46.12-.84.18-.47-.59-1.35-.55-1.59-1.49l-.31.06c-.5-.94-1.3-1.42-1.66-2.59-.39-.16-.55-.65-.93-1-.13-.12-.34-.13-.45-.23a1.16,1.16,0,0,1-.27-.89c-.24-.29-.16-.43-.27-.9-.74-.65-1.61-1.09-2-2.28-.62,0-.88-.68-1.42-1-.4.19-.53,0-.83-.14-.3.37-.41,0-.76.16-.82.45-.3,1.82-.14,3.06.24.22.3.35.42.46s.16.34.25.43c.49.46,1.31.47,1.74,1.06.64,0,.68.26.84.61a.49.49,0,0,1,.32,0,7,7,0,0,1,1.9,2.15c.05.08,0,.22.06.3.59,1.07,1.59,1.37,2.09,2.34.21.12.46.17.57.44s.09.4.13.61c.61.44.91,2,.91,2.75-.3.18-.34.52-.83.57a1.58,1.58,0,0,0,.91.93c.3.61,1,.54,1.12,1.5a3.48,3.48,0,0,0-.09,2.17c-.16.16-.12.46-.36.56l.07.13-.1.11a1.72,1.72,0,0,1,.58,2c-.26.19-.41,0-.46.1.28.19-.53.46-.77.48s-.37-.19-.69-.25-.16,0-.34-.08a1.77,1.77,0,0,0-.4,0c-.22-.09-.31-.37-.46-.3s0,.15,0,.17c-.32-.13-.62-.33-1-.11a.67.67,0,0,0-.69-.25c-.12,0,0,.21-.2.2a2.4,2.4,0,0,0-.95,0c-.46-.4-1-.2-1.57-.3-.4-.6-1.05-.51-1.7-.51a2.65,2.65,0,0,0-.88-.76c-.3.08.1.22-.09.33-.28-.32-.5,0-.76.16-.14,0-.07-.36-.24-.34,0,.12.07.26-.1.26v.12h-.13c0,.19.17.21.24.34a3.5,3.5,0,0,1,2.12,1c1.18-.17,1.89.93,2.86.74a2.46,2.46,0,0,0,1.41,1,.79.79,0,0,0,1.12.4c.3.34,1.14.18,1.26.68.21.06.23-.09.32,0,0,.29.38.27.49.45,0,0-.11.11,0,.17s.68.14.64.74c-.53.24-.47.45-.88.75-.43,0-.58-.53-.88-.77-.09.09-.36-.11-.74-.08a.2.2,0,0,1-.1.26c.72.73.83,1.79.09,2.29A1.47,1.47,0,0,1,30.08,38a5.31,5.31,0,0,0-1.26-.69c-.42.34-1.16.48-1.49.87.26.13.72.06.88.38a.56.56,0,0,1-.06.48l-.45.1a1.56,1.56,0,0,1-1.93.65c-.24.31-.58.14-1,.29s-.7.48-.77.48-.17-.14-.34-.08-.34.27-.56.36c-.45.19-.95.08-1.43.38-.51-.46-1.12.22-1.8-.25-.45.43-1.27,0-1.57.49-.16-.09-.43,0-.64,0a1.2,1.2,0,0,1-1.16.17c-.23.07-.31.24-.48.34-.11-.2-.32-.25-.42-.47-.8.23-2.19.34-2.81,1a5.53,5.53,0,0,0-1.32-.19c-.09.09-.11.23-.26.29a1.41,1.41,0,0,0-.93,2c.17.33.66.44.73.8.22.15.37-.08.62,0s.48.3.78.31.68-.3,1.05-.31.53.24.86.3.4-.09.63-.06.64.36.87.38.24-.15.29-.15.18.18.28.18.27-.1.46-.09a.55.55,0,0,0,0-.4,2.64,2.64,0,0,1,1.08-.55,2.13,2.13,0,0,1,1.45-1c-.06-.26.16-.33.3-.46.81,0,1.51-.47,2.18-.23a1,1,0,0,0,1.38.5c0-.31.29-.47.4-.72.5-.1,1,.12,1.53.07s1.14-.45,1.59,0a4.74,4.74,0,0,1,1-.13c.18.12.33.31.55.36.52.1,1.34-.45,1.45.08-.05-.6.57-.13.86-.1s.71-.24.81.07c.22,0,.17-.15.36-.16.13.21.82,0,.69.25.29,0,.13-.35.48-.34.83.13,1.16,1.51,1.3,2.35,0,.1-.11.09-.12.18.32,0,.4.51.44.55s.35,0,.43.14a3.36,3.36,0,0,1,.25.82c-.23-.15-.26.11-.35.24.29.25.25.38.47.69-.13.71-.77,1.08-.8,1.85a.78.78,0,0,0-.53.51c-.14,0-.18,0-.32,0,0,.23-.2.39-.26.61-.83.65-2,1.74-3.54,1.71-.12.18,0,.15-.29.14.07.27-.11.37-.21.53-.11-.21-.17.13-.38.08-.87,1-.67,2.3-1.53,3.27-.5.26-.49.86-1.31.92,0,.32-.43.33-.51.58.19.39-.94.76-.8,1.13-.4.22-.59.1-1.16.17-.17.3-.62.42-1,.61-.15,0-.12-.29-.35-.17a7.06,7.06,0,0,0-1.17.89,1.56,1.56,0,0,1-.7,1.18c-.2.15-.21.24-.33.31s-.1-.1-.17,0-.16.47-.47.42a1.76,1.76,0,0,1-.28.93c-.09.3,0,0,.11.14-.32.21-.06.79-.43,1a2.42,2.42,0,0,1,.26,1.21c.84.07,1.3.89,1.84,1.13-.06,0-.08.08-.05.16l.11-.06,0,.12c.37-.23.7.21,1.09.25.57-.47,1.12-.53,1.57-1.21.33.14.57-.21,1-.21,0-.25.12-1,.53-.91-.12-.58.46-.86.83-1.29,0-.16-.13-.13-.2-.2.15-.06.17-.2.26-.29-.24-1-.58-1.58-.23-2.18.3.12.45-.48.44-.58.25.25.36-.48.57-.67.56-.1,1-.61,1.71-.93A1.53,1.53,0,0,1,30,57.91c.26-.79,1-.86,1.79-.94a9.6,9.6,0,0,1,1.48-1.59c-.1-.22,0-.3,0-.47.3,0,.18-.24.43-.25.05-.27,0-.27-.12-.54,1.11-.45,1.41-1.52,2.33-1.77.13-.07-.08-.36.07-.41s.14.05.25,0c.34-.74,1.08-.34,1.56-.89a.58.58,0,0,1,.64,0c.08,0,.29-.1.38-.08s.23.4.25.43.2,0,.26.1c.14.27.22.36.27.5a2.12,2.12,0,0,1-.49,2.18c.07.09.29,0,.33.08,0,.71.28,1.76-.22,2.28,0,.58-.47,1.07-.23,1.56-.15.1-.13.36-.36.56,0,.15.13.15.14.29-.76.37-.45,1-1.29,1.39.28,1.36-.68,2.28.18,3.46a5.39,5.39,0,0,0,1.17.23c.15-.21.36-.49.34-.63,0,.08.11.1.18.12a.86.86,0,0,1,.79-.81,1,1,0,0,0,.11-.58c1.17-.68-.86-1.83.06-2.32-.22-1.28.74-1.8.91-2.82.21.12.29.43.51.53-.26.14,0,.64.06,1s-.19,1,0,1.19a1.49,1.49,0,0,0-.18,1.39c-.61.23,0,1.11-.66,1.42.35,1-.23,1.38-.72,1.82a1.55,1.55,0,0,1,0,1.68c.18,0,.08.42.31.33s0-.24.44-.17a3.07,3.07,0,0,0,.11-1c.11.12.6.15.7-.07s-.31-1.3.15-1.54c-.14,0-.2-.1-.22-.28s0-.2.07-.41.24-.2.26-.29c.08-.35-.14-.58.27-.62-.05-.2-.07-.44-.19-.51.46-.35.24-.75.71-1.11-.13-.37.15-.46-.07-.7a2.17,2.17,0,0,0,.91-1c.7-.23,1.32-.14,1.73-.45.13.69-.33,1.16-.22,2l-.3.07c.06.16-.06.3-.15.43s-.4.18-.5.26-.18.35-.37.48-.45.17-.73.32c0,.49.07.79.1,1.25.51.1.65.75,1.2.78.23-.36.44-.73.65-1.09-.36-.23,0-1.12.23-1.17-.35-.66.38-1,.65-1.41-.19-.29.26-.5.38-.78-.09.17-.28-.47,0-.17s.17,0,.39-.08c.52,1.19.23,2.6.58,3.45-.27.34-.17.9-.37,1.28.43.37.17.57.34,1.2a.42.42,0,0,0-.29.14c.15.45,0,.71.17,1.16-.78.45-.19,1.81-.77,2.39a1.37,1.37,0,0,1-.42,1.36c-.25,0-.26.14-.44.18A18.39,18.39,0,0,0,45,72.56c-.12,0-.15-.07-.23,0,.07.55.52,1,.43,1.65.34,0,.44.28.64.35a3.29,3.29,0,0,0,.65.09c.17-.39.88-.37,1.28-.75-.35,0,.36-.42.2-.52.51.12.37-.58.87-.42-.22-.47.12-.58.21-.84-.19-.33.2-1-.17-1.56-.66.36-1.31-1.36-.66-1.61-.18-.61.49-1,.07-1.53.25,0,.29-.16.33-.31-.09,0-.18,0-.18-.12.43-.35-.36-1.07.18-1.39-.09-.23.08-.3,0-.55.31-.07.29-.48.62-.45a5.32,5.32,0,0,0-.41-.79c.5-.51.38-1.41.22-2.35.3-.13.19-.53.58-.61.06-.26,0-.26-.11-.53.41,0,.09-.42.1-.66a.69.69,0,0,1,.44-.17c0-.66.63-.91.49-1.78.15,0,.15-.12.29-.14,0-.34-.18-.36-.13-.61.3,0,.18-.23.43-.25.19.41.6.49.76,1,.62.37,1.66,0,2.12-.14-.18-.39.28-.61.43-.57,0-.27-.26,0-.21-.27.33.08.2-.2.53-.12,0-.43.38-.4.54-.83,0,.13.44,0,.38-.08s.42-.64.6-.93c.74,0,1.41-.66,1.81-.46-.37.06.29.31,0,.55.21-.13.38.34.49.05-.18-.1.17,0,.28-.14.19.2.34.42.53.6.33-.05.18,0,.51.14,0-.07,0-.16,0-.17.2.25.39.26.36.56.18,0,.19-.18.44-.18,0,.1-.08.13,0,.25.42-.17.53.31.69.25.3.89,1.18.89,1.61,1.57-.08,0-.22-.3-.24,0,.22.16.5.23.54.68a1.45,1.45,0,0,1,.73.8c.54.54,1.46.51,1.86,1.27a3,3,0,0,1,1.22.86,3.23,3.23,0,0,1,.68,1.68,6.59,6.59,0,0,1-.17.67s.15,0,.16.05-.17.4.07.31c.15-.4,0,.42.38.31a5.57,5.57,0,0,0,.39,1.83c.21.15.7.3.55.68a4.94,4.94,0,0,1,1,.43c.81,1.28,1.57,1.88,3.06,1.65,0-.15-.14-.13-.21-.2.22-.06.27.13.5.06,0-.31.36-.38.41-.65.69,0,.4-.74.81-1-.15-.28-.1-.58-.46-.69.15-.23-.33-1,0-1.29a13.46,13.46,0,0,0-.5-2c-.1-.11-.28-.1-.37-.24a3,3,0,0,0-1.78-1.61c-.18,0-.13.18-.36.16a9.78,9.78,0,0,0-.8-.78c-.32,0-.18.27-.51.26-.76-.73-1.27-1.88-2.24-2.3,0-.25-.19-.24-.19-.52-.14-.09-.35-.07-.44-.22-.31-1-.59-.9-1.12-1.52-.09-.81-.79-1.29-1.18-2.13.09,0,.18-.07.12-.19-.31,0-.24-.33-.34-.48-.23-.33-.62-.55-.82-.86a.67.67,0,0,1,0-.48c-.47-.22-.66-.88-.88-1.48.33-.1.38-.64.22-.84a4.09,4.09,0,0,1,2.22-.8c0-.2.46-.76,1-.68,0-.67.75-.2,1.15-.56,0,.09-.07.12,0,.24a2.16,2.16,0,0,1,1-.3.43.43,0,0,0,.53.2c.35.5,1.19.25,1.64.61,1.18-.22,1.61.27,2.59-.16.43.25.55,0,1-.21,0,.24.22,0,.32,0s.17.12.26.1a2.29,2.29,0,0,0,1.08-.54,2.56,2.56,0,0,0-.24-1.15,3,3,0,0,0-1.59,0c-1-.13-1.61-2-.47-2.2-.12,0,0-.13,0-.17.56.13.71-.74,1.4-.54.1-.09.06-.27.25-.29.34,0,.79-.07.94.27.23,0,.17-.15.36-.15a1,1,0,0,0,1.3.11,7.42,7.42,0,0,1,2,.3c.27,0,.26-.17.51-.19.47.09.76.45,1.35.35.47.49,1.59,0,2.08.43a1.18,1.18,0,0,1,1.15.15c-.08-.32.12,0,.17.05.23,0,.17-.15.36-.16.28.21.76.12,1,.43,1.59-.07,1.75.48,3.2.43.69-.52,1.81-.33,2.52-.86.22.26.49.16.89.05l-.07-.13Z"/><path class="cls-1" d="M32.45,27.86c.24-.33.66.56,1.11,0-.13,0,0-.46.13-.51l-.06-.11-.06-.1c-.42-.36-.75.1-1.14.24l.07.13-.1.12C32.41,27.7,32.43,27.78,32.45,27.86Z"/><path class="cls-1" d="M93.09,44.51l.07.13-.1.12c.25.4,1,.05,1.22.45.2,0,.44-.06.51-.19l-.06-.13.09-.11C94.56,44.23,93.5,44.5,93.09,44.51Z"/><path class="cls-1" d="M18.07,12l.06-.13h.15s-.18-.61-.37-.64c-.15.33-.1.32-.45.17C17.52,11.82,17.87,11.79,18.07,12Z"/><path class="cls-1" d="M18.83,12.21c.44-.11,0-.45.3-.46-.12-.28-.44-.78-.67-.57C18.68,11.3,18.38,12.15,18.83,12.21Z"/><path class="cls-1" d="M23.45,25.24c0-.15.14,0,.14-.11-.17.06-.13-.2-.28-.18C23.35,25.06,23.34,25.24,23.45,25.24Z"/><path class="cls-1" d="M25.66,25.88c-.24.39-.73-.1-.86.11l.07.13-.09.11c.22.17.53.19.66.5.31-.09.32,0,.53-.12l0-.12h.12C26.24,26.2,25.86,26,25.66,25.88Z"/><path class="cls-1" d="M27.69,27.2c-.11,0-.11-.17-.14-.29l-.3.07.06.1h-.12C27.19,27.31,27.6,27.44,27.69,27.2Z"/><path class="cls-1" d="M2.34,44.56c.38-.48.91.11,1.13-.32-.06,0-.15,0-.17,0a7.55,7.55,0,0,1,2.23,0s-.08.09,0,.07c.33,0,.76-.47,1.12-.71,0-.78-1.07-.83-1.17-.23-.46.07-.63-.12-1.26,0A3.63,3.63,0,0,0,1,43a4.21,4.21,0,0,1-.07.81c.36.12.54.55.94.67C2,44.55,2.2,44.33,2.34,44.56Z"/><path class="cls-1" d="M13.53,70.83c-1,.39-2.32.73-3,1.6-.6,0-.58.56-1,.45,0,.23-.11.32-.22.45-.91,0-1.27.92-1.8,1.26,0,.19.17.13.15.37-.31.05-.12.66-.45.49a.35.35,0,0,0,.13.21c-.1.21-.8.17-.72.39,0,0,0,0-.07,0s-.41.42-.59.6-.2.49-.4.72a2.2,2.2,0,0,1-.62.45c-.1.08,0,.3-.09.35-.42,0-.58.23-1,.28,0,.29,0,.52-.36.55-.13.17,0,.26-.09.34-.83.38-1.4,1.2-2.31.73-.07.29.06.51-.32.39-.15.32,0,.82-.43,1a.94.94,0,0,1-.35,1c.07.75.17,1.92,1,2.26.06-.33.2,0,.4,0s.67-.33,1.16-.17c0-.09-.06-.21,0-.24A6.91,6.91,0,0,0,3.85,84c-.23-.45.53-.68.49-1.06.18.06.34-.19.12-.18,0,0,0,.1-.07,0s.26.05.27-.22.12-.06.18-.28c.12-.4-.11-.84.37-.87,0-.11.08-.17,0-.32C6,80.74,6,79.92,6.8,79.59c-.06-.32.37-.33.53-.51-.09,0-.13-.06-.18-.12A.76.76,0,0,1,8,78.54a.69.69,0,0,1,.7-.47c0-.25-.08-.31,0-.4.17.28.87-.07.43-.25a1.63,1.63,0,0,0,.83-.17c-.14-.56.32-.5.56-.76,0,0,0-.46.32-.38,0-.16-.14-.14-.21-.2.21,0,.18.09.31-.07-.1-.66.4-.7.47-1.13.32,0,.28-.17.54-.12.1-.3.15-.64.64-.69.1-.4.29-.86.79-.81C13,72.28,14.38,71.5,13.53,70.83Z"/><path class="cls-1" d="M50.41,84c-.53-.66-.38-1.55-.56-2.27-.07-.25-.26-.47-.32-.73s.07-.59,0-.79c0,0-.18-.12-.2-.2-.1-.43-.12-.81.13-.9-.07,0-.15,0-.17,0,0-.5-.42-.63-.31-1-.46-.31-.4-.86-1.1-.71.05.32-.28.39-.44.57a1.37,1.37,0,0,0,.21.59c-.12,0-.15-.06-.23,0a17.92,17.92,0,0,1,.18,3.06.43.43,0,0,0-.22.13c0,.38.28,1-.06,1.21.18.32,0,1.15-.39,1.12.22.24.17.32.37.63-.28.15-.11.59-.4.73.54.34-.37.62,0,1.36-.51,0-.32.93-.41,1.44.44.08.48,1.09.39,1.43.2.2.1-.25.23,0-.24.43.16.91-.14,1.22.33.35.06.4.27.9-.21-.12-.17.07,0,.17-.4,0-.07.48-.36.55.09.42.35.62,0,.79.11.35,0,.32.32.41-.25.18.2.08.14.29-.13,0-.29.22-.11.19,0-.06,0-.1.13-.11.12.27-.06.35.06.62.24-.1.15.14.12.22.33,0,1,.21.74.48a2.56,2.56,0,0,0,1.59-.74.08.08,0,0,1,0-.16c.32.22,0,0,.06-.09s.4-.43.34-.63c-.35,0-.09-.24-.05-.23a1.08,1.08,0,0,1-.26-.5.37.37,0,0,1,.24,0,.88.88,0,0,1,0-1c-.1,0-.22.05-.25,0,.12-.29-.17-.95-.35-1.28.22-.12-.12-.48.27-.61,0-.28-.17-.63.08-.74-.25-.27,0-.49.08-.73a.41.41,0,0,1,.08-.73c-.27-.37-.12-.41-.1-.86-.33-.19-.19-.54-.27-.9.46-.07.24-.59.55-.75C50,85.12,50,85,50,84.61,50.35,84.54,50.19,84.13,50.41,84Z"/><path class="cls-1" d="M105.3,46.12c-.09-.14-.27-.65-.4-.39.06,0-.16.33-.23.44a3.39,3.39,0,0,0-1,.14,4.17,4.17,0,0,0-2.38-.68c-.28-.52-1.14-.13-1.47-.57-.51.29-.91-.13-1.39-.18-.52.38-1.08,0-1.71.21.13.37.22.35.3.65.38.06.48.06.63.34.61-.09.85.38,1.48.25a3.14,3.14,0,0,0,3.23.58c0,.08,0,.15,0,.23l.53-.12c.5.56,1,.71,1.55,1.27a1,1,0,0,1,.79,0c.3-.13.27-.26.61-.13a3.43,3.43,0,0,0,.52-1.31A4.81,4.81,0,0,1,105.3,46.12Z"/><path class="cls-1" d="M16.21,9A.68.68,0,0,0,16,9l.82.7C16.71,9.33,16.3,9.34,16.21,9Z"/><path class="cls-1" d="M19.76,22.79l.39.16A.71.71,0,0,0,19.76,22.79Z"/><path class="cls-1" d="M19.48,22.67a.7.7,0,0,0,.28.12Z"/><path class="cls-1" d="M27.87,27.48l.21,0,0,0S28,27.45,27.87,27.48Z"/><path class="cls-1" d="M22.47,39.1a.64.64,0,0,0,.36.17Z"/><path class="cls-1" d="M17.52,39.76l.44-.17A1.39,1.39,0,0,0,17.52,39.76Z"/><path class="cls-1" d="M3.59,10.74l.94.47A1,1,0,0,0,3.59,10.74Z"/><path class="cls-1" d="M15.52,8.63l.27.41A1.13,1.13,0,0,0,15.52,8.63Z"/><path class="cls-1" d="M95.08,44.88h-.35C94.85,44.9,95,45,95.08,44.88Z"/><path class="cls-1" d="M22.82,28.08l.2.16-.1-.16Z"/><path class="cls-1" d="M19.41,12.09l.11.18A.46.46,0,0,0,19.41,12.09Z"/><path class="cls-1" d="M20.31,12a.77.77,0,0,0,.12.37Z"/><path class="cls-1" d="M30.82,21l-.22-.07A.55.55,0,0,0,30.82,21Z"/><path class="cls-1" d="M24.87,26.12l-.34-.22C24.64,26,24.74,26.11,24.87,26.12Z"/><path class="cls-1" d="M26,26.49l.84.38A2.2,2.2,0,0,0,26,26.49Z"/><path class="cls-1" d="M16.52,47.63l0,0-.5.13C16.2,47.69,16.38,47.73,16.52,47.63Z"/></g></g></svg>